/* XPM */
static char *ab7d6985efb04ecabc4801920119f29eHaU7XRYBeEY5GBXd[] = {
/* columns rows colors chars-per-pixel */
"64 64 20 1 ",
"  c #0C4305",
". c #07520C",
"X c #0D7815",
"o c #267E0B",
"O c #3C7421",
"+ c #9B0000",
"@ c #8D0B28",
"# c #B46E7D",
"$ c #578741",
"% c #6BA958",
"& c #8E8000",
"* c #BE8D0A",
"= c #F4D327",
"- c #EED93A",
"; c #4A73C5",
": c #C98695",
"> c #E195A6",
", c #E89AAB",
"< c #F7E0E0",
"1 c #F6F6F6",
/* pixels */
"oooooooooooooooooooooooooooooooooooooooooooooooooooooooooooooooo",
"ooo1oooooooooooooooooooooooooooooooooo ooooooooooooooooooooooooo",
"oo1=1oooooooooooooooo%oooooooX-oooooo $oooooooooooo;ooooo1oooooo",
"ooo1ooooooooooo@@ooooooooooo.Xooo ooo $oo oooooooo;<;ooo1=1ooooo",
"ooooooooo;oooo@#:@ooooooooooooooo$ oo$oo $oooo1oooo;ooooo1oooooo",
"oooo%ooo;<;ooo@>,@oooooo1oooooooo$ oo oo$oooo1=1oooooooooooooooo",
"ooooooooo;ooooo@@oooooo1=1oooooooo$ o$ ooooooo1ooo1ooooooooooooo",
"oooooooooooooooooooooooo1ooooooooo$ o$ oooooooooo1=1oooooooooooo",
"ooooooooooo;ooooooooo1ooooooooo%ooo$oo$ooooooooooo1oooooo%oooooo",
"oooooooooo;<;ooooooo1=1oo1ooooooooooooooooooooooooooo oooooooooo",
"oooooo oooo;oooo%oooo1oo1=1oooooooooo******oooooo oo ooooooooooo",
"oo oo $oooooooooooooooooo1ooooooooooo******ooooooo o Ooooo@@oooo",
"oo$ o $oooooooooooooooo1ooooooooooo ********oooooO o Oooo@>,@ooo",
"oo$ o$oooo;ooo oooo oo1=1oooooo oo************ooooOoOoooo@:#@ooo",
"ooo$ooooo;<;oo$ oo $ooo1ooooooo$ o************oooooooooooo@@oooo",
"oooooo%ooo;ooo$ oo$oooooooooooo$ o**********&&oo%oo;oooooooooooo",
"oooooooooooo oo$ooo oooooooooooo$o************&ooo;<;ooooooooooo",
"oooooooooooo$ ooo oo ooooooooooooo**********&&&oooo;oooooooooooo",
"ooo ooo ooooo$oo $o$ oooooo;oooooo**********&&&ooooooooooooooooo",
"oooo o ooooooooo $o$ ooooo;<;ooooo*********&&&&ooooooo;ooooooooo",
"oooooo oooooo oo$ooo$oooooo;ooooo+&&&***&&&&&&ooooooo;<;ooo%oooo",
"ooooooooooooo$ oo ooooooooooooooo+&&&***&&&&&&oo1ooooo;ooooooooo",
"ooooooooooooo$ o $ooooo%oooooo ++++++&&&&oooooo1=1oooooooooooooo",
"oooooooooooooo$o$oooooooooooo o++++++++++ooooooo1ooooooooooo;ooo",
"oooo@@ooooooooooooooooooooooo****++++++++oooooooooooooooooo;<;oo",
"ooo@>,@ooooooo%oooooooooooo o****++++++++ooooooooooooo1ooooo;ooo",
"ooo@:#@oooX-ooooooooo@@ooo*******&++++++++++ooo ooooo1=1oooooooo",
"oooo@@ooo.Xooooooooo@>,***********&&++++&+++++o$ o%ooo1ooooooooo",
"oooooooooooooooooooo@#:***********&&++++&+++++o$ oooo oooooooooo",
"ooooooo;ooooooooooooo@**************&+++&&&++++o$ooo $oo1ooooooo",
"oooooo;<;oooo ooo oo***********&&****&&++**&++++oooo$oo1=1oooooo",
"ooooooo;oooooo o oo***********&&&******++++*&&++o oooo o1ooooooo",
"ooo%oooooooooo oooo***********&&&******++++*&&++ $ooo ooooo1ooo%",
"o ooooooooooooooooo**********&&&&******&+++***&& $ oo $ooo1=1ooo",
"o$ oo ooo;ooooooooo****&&&&&&&&&&&******&+++******$ o$ooooo1oooo",
"oo$o ooo;<;oooooooo****&&&&&&&&&&&******&+++******$ ooooo1oooooo",
"o oo $ooo;oo%oooo*******&&&&&&&&&&&&&&&*&+++******o$oooo1=1ooooo",
"oo o $ooooooooooo*********&&&&&&&&&&&****&&&******ooooooo1oooooo",
"o$ o$oo1ooooooooo*********&&&&&&&&&&&****&&&******o%oooooooooooo",
"oo$ooo1=1oooooooo*********&&&&&&&&&&************&&oooooooooooooo",
"ooooooo1ooo ooo o*********&&&&&&&&************&&&&ooooooo oooooo",
"ooooooooooo  o oo*******&&&&&&&&&&**********&&&&:@ooo oo ooooooo",
"oooooooooooo o $o*******&&&&&&&&&&**********&&&&,@oooo o ooooooo",
"oo%oooooooo$ o$oooo****&&&&&&&&&&&**********&&&&@ooooo ooooooooo",
"oooooooooooo$oooooo****&&&*****&&&&&*******&&&&oooooooooooo;oooo",
"oooo ooooooooo1oooo****&&&*****&&&&&*******&&&&ooooooooooo;<;ooo",
"ooo $$ooooooo1=1oooo*************&&&****&&&&ooo1ooooooooooo;oooo",
" oo $oooo1oooo1oooo@>,******************&&&ooo1=1ooooooooooooooo",
"$ o$oooo1=1oooooooo@:#@o****************&&&oooo1oooooo;ooooooooo",
"o$ooooooo1ooooo%oooo@@oo****************&&&oo1ooooooo;<;ooooo%oo",
"oooo1ooooooooooooooooooooo***********&&&&ooo1=1ooooooo;ooooooooo",
"ooo1=1ooooooooooooooooooooo;ooooooooooooooooo1oooooooooooooooooo",
"oOoo1oo1oooo ooo oooooooo1oooooooooooo;oooooooooooooooooo1oooooo",
"oooooo1=1oooo o oooooooo1=1ooooXooooo;<;ooooooooooooo%oo1=1ooooo",
"ooo1ooo1oooo$ o $ooo%oooo1oooo.Xoooooo;oooooooooooooooooo1ooo1oo",
"oo1=1ooooooo$ o$ooooooooooooooooooooooooooooooooo ooo oooooo1=1o",
"ooo1ooOoooooo$oooooooooooooooooooooooooooooooo oo$ ooo oooooo1oo",
"ooooooooooooooooooo1oooooooo ooooooooooooo1ooo$ o$ oo$ ooooooooo",
"ooooooo oooooooooo1=1oooooo oooooX-oo%ooo1=1ooo$$o$o $ oo oooooo",
"ooo oo oooooooX-ooo1oooo oo $ooo.Xoooooooo1ooo oooo $o$o $oo;ooo",
"oooo o o$oooo.Xoooooooooo o $ooooooooooooooooo$ ooo $ooo$oo;<;oo",
"ooo$ o$$oooooooooooooooo$ o$ooooooooooooooooooo$ooo$oooooooo;ooo",
"oooo$ooooooo%oooooooooooo$oooooooooooooooooooooooooooooooooooooo",
"oooooooooooooooooooooooooooooooooooooooooooooooooooooooooooooooo"
};
