/* XPM */
static char *_1f00c637edf49c8e64d3ef6b2ecc643izNMac3wt0dd50Xe[] = {
/* columns rows colors chars-per-pixel */
"64 64 246 2 ",
"   c #034703",
".  c #0B4503",
"X  c #054C05",
"o  c #0A4C04",
"O  c #09460A",
"+  c #054C0A",
"@  c #0A4B09",
"#  c #134203",
"$  c #114B09",
"%  c #005002",
"&  c #0D5106",
"*  c #0D530B",
"=  c #0B5408",
"-  c #125404",
";  c #1A5403",
":  c #13540C",
">  c #1B550E",
",  c #15590D",
"<  c #185B0C",
"1  c #0F5D11",
"2  c #115810",
"3  c #1B5C12",
"4  c #275C04",
"5  c #344E15",
"6  c #245C17",
"7  c #1C6009",
"8  c #1E6218",
"9  c #2F6B0A",
"0  c #246516",
"q  c #26681A",
"w  c #2B6C1D",
"e  c #366A1A",
"r  c #396F1D",
"t  c #2C731D",
"y  c #377215",
"u  c #36741E",
"i  c #3A741E",
"p  c #35781E",
"a  c #3C791D",
"s  c #345121",
"d  c #2B6B22",
"f  c #326E23",
"g  c #3A6823",
"h  c #3C6D22",
"j  c #2B7122",
"k  c #2A7326",
"l  c #367423",
"z  c #3A7423",
"x  c #347825",
"c  c #3C7923",
"v  c #347429",
"b  c #3B7629",
"n  c #337929",
"m  c #3F7730",
"M  c #4B4E1F",
"N  c #43741C",
"B  c #584A20",
"V  c #4C5E28",
"C  c #725C30",
"Z  c #476825",
"A  c #436D24",
"S  c #496B24",
"D  c #576927",
"F  c #437324",
"G  c #4B7527",
"H  c #447D21",
"J  c #42762B",
"K  c #447C2A",
"L  c #52732A",
"P  c #527034",
"I  c #5A7134",
"U  c #676A35",
"Y  c #756835",
"T  c #677637",
"R  c #76753B",
"E  c #7A7943",
"W  c #895F39",
"Q  c #86693C",
"!  c #89743D",
"~  c #E8543B",
"^  c #E9673E",
"/  c #886F44",
"(  c #906D43",
")  c #887844",
"_  c #987649",
"`  c #997954",
"'  c #A86E4A",
"]  c #A87A56",
"[  c #B57959",
"{  c #BB7A62",
"}  c #ED4F46",
"|  c #E95748",
" . c #F2584C",
".. c #EE5855",
"X. c #F55957",
"o. c #C5795B",
"O. c #D2715B",
"+. c #EA6546",
"@. c #EE6C49",
"#. c #F57B47",
"$. c #E9675C",
"%. c #F76758",
"&. c #F67757",
"*. c #FF5865",
"=. c #C47D67",
"-. c #D57A66",
";. c #EB6863",
":. c #F76866",
">. c #FC6C65",
",. c #FB6B6B",
"<. c #EA7467",
"1. c #E47C6C",
"2. c #EB7D6C",
"3. c #F97568",
"4. c #FC736D",
"5. c #F47B6C",
"6. c #FD6D76",
"7. c #E67E75",
"8. c #ED7D73",
"9. c #FD7374",
"0. c #F37B73",
"q. c #FB7972",
"w. c #F77978",
"e. c #388126",
"r. c #61881E",
"t. c #498125",
"y. c #45822B",
"u. c #4A872C",
"i. c #4C842C",
"p. c #5B8B23",
"a. c #51852C",
"s. c #528A2D",
"d. c #599129",
"f. c #4B8731",
"g. c #4D8A35",
"h. c #538C33",
"j. c #568B37",
"k. c #4C9137",
"l. c #559132",
"z. c #599037",
"x. c #55923A",
"c. c #5B943C",
"v. c #678834",
"b. c #669A38",
"n. c #629B3D",
"m. c #6B9C3D",
"M. c #739D3C",
"N. c #76A32C",
"B. c #6BA13D",
"V. c #77A538",
"C. c #5F9541",
"Z. c #5C9C41",
"A. c #639742",
"S. c #659C42",
"D. c #6B9E43",
"F. c #669E48",
"G. c #6A9E4A",
"H. c #769646",
"J. c #7C9445",
"K. c #739B44",
"L. c #7C954A",
"P. c #749A4A",
"I. c #7B994C",
"U. c #5FA44B",
"Y. c #65A143",
"T. c #6AA144",
"R. c #66A249",
"E. c #6AA149",
"W. c #73A343",
"Q. c #77A947",
"!. c #73A549",
"~. c #7CAB4C",
"^. c #7EB24C",
"/. c #7AAC53",
"(. c #7CB155",
"). c #81A73A",
"_. c #878649",
"`. c #8B8C4B",
"'. c #9A8C4F",
"]. c #859548",
"[. c #84934C",
"{. c #8A924D",
"}. c #97924B",
"|. c #8A8E52",
" X c #998956",
".X c #8C9855",
"XX c #989354",
"oX c #A08C4D",
"OX c #A78755",
"+X c #A38C5A",
"@X c #AC8C5C",
"#X c #BC825D",
"$X c #B28859",
"%X c #A6945A",
"&X c #86B54D",
"*X c #84B252",
"=X c #8AB453",
"-X c #89B758",
";X c #8EBC59",
":X c #92BC5B",
">X c #AA8C66",
",X c #BC8C63",
"<X c #B98A66",
"1X c #B49163",
"2X c #BC956E",
"3X c #8DBD61",
"4X c #C5875E",
"5X c #F5834A",
"6X c #F79F4B",
"7X c #F68751",
"8X c #F99457",
"9X c #FCA856",
"0X c #FEB85A",
"qX c #C38A65",
"wX c #C68868",
"eX c #D58668",
"rX c #DA846E",
"tX c #DC8A6D",
"yX c #CA9166",
"uX c #DD8573",
"iX c #D68B71",
"pX c #D08E70",
"aX c #D78974",
"sX c #E4836C",
"dX c #EC826D",
"fX c #E58372",
"gX c #E78477",
"hX c #F38177",
"jX c #FBAA66",
"kX c #FFBD66",
"lX c #8DC35E",
"zX c #95C655",
"xX c #94C55D",
"cX c #9AC45C",
"vX c #9EC95C",
"bX c #A4CA5E",
"nX c #9CC562",
"mX c #9CCA64",
"MX c #97C768",
"NX c #A5C661",
"BX c #A4CA63",
"VX c #AAC864",
"CX c #A2CB6A",
"ZX c #A0D062",
"AX c #FFC266",
"SX c #F97A81",
/* pixels */
"BXvXBXCX(.a.i i F i.D.E.E.E.E.T.T.T.T.D.T.V.T.W.K.Q.&XBXNXVXBXnX^.B.S.a c a i i l z z z z e.Z.Z.n.S.T.T.Y.Y.T.S.Y.Y.S.l.c c h.T.",
"BXcX;X=X!.z.h.h.h.z.D.E.E.E.E.T.T.T.T.D.T.*X*X=X-X-XcXBXNXNXVXnX;X-X^.h.h.h.h.f.c z z z h F a.a.z.Y.R.R.Y.Y.T.S.Y.Y.Y.n.g.g.n.T.",
"CX:XQ.M.D.D.S.S.S.S.S.S.E.T.T.T.T.T.T.T.D.mXBXBXBXNXNXNXNXNXNXBXCXCXMXS.Y.S.S.C.K z h z z r i u u.D.D.R.Y.Y.T.S.T.T.T.T.R.R.T.T.",
"mX;XQ.K.D.D.S.m.m.m.m.R.R.R.R.T.T.T.T.T.D.nXvXvXbXbXNXNXBXvXxXxXmXMX:Xm.m.S.D.S.K J c c c S L D R `.I.G.Y.Y.T.S.S.S.S.S.S.S.T.!.",
"(./.E.T.S.S.S.T.T.T.T.T.S.S.S.S.S.T.T.D.W.*X&XzXzXbXBXBXmX;X(.(.(././.D.D.D.G.S.x.k.h.k.v.E ` [ o.,X+XJ.D.D.D.T.D.D.D.D.D.S.~.;X",
"E.S.T.E.E.E.S.T.T.T.T.S.S.S.S.S.D.T.T.T.S.D.m.&XzXbXbXBXmX*Xn.S.n.n.D.D.D.D.G.E.R.R.D.U.I. X2XtXfXtX@XI.D.D.D.T.D.D.D.D.S.D.*XBX",
"h.i.i.i.j.S.E.T.T.T.T.T.S.S.S.S.D.S.S.D.E.E.E.Q.^.*X*X~.Q.T.T.T.S.T.T.D.D.D.D.E.S.Y.K.Y.I.@XpX8.9.8.,X[.K.K.D.T.D.D.D./.;X:XcXbX",
"i i u u K C.G.S.T.T.T.K.K.D.D.M.D.S.D.S.T.Y.G.E.D.K.T.T.T.T.S.S.S.S.D.D.D.T.T.T.T.T.Y.R.J.OXtXq.9.5.#X[.K.D.T.Y.m.m.M.=XBXBXBXNX",
"i z u u K c.F.n.n.n.T.T.T.T.T.Y.Y.S.I.{.{.[.[.I.D.K.T.T.T.T.S.S.S.S.D.D.D.T.T.T.T.T.Y.T.H.'.1XeXtXeXOXI.D.D.T.S.m.W.W.=XBXBXBXNX",
"u z l l z K K H H s.Y.Y.Y.S.D.R.R.I.+XqXqXqX,XXXP.D.T.T.T.T.S.S.S.S.D.D.D.T.T.T.T.T.T.D.K.I..XXXXXXX[.T.T.T.n.S.~.3X:XnXBXVXVXNX",
"l z l l u u u y y t.n.T.D.K.H.L.P.|.<XfXgX0.sX@XP.G.T.T.T.T.S.S.S.S.D.D.D.W.W.W.W.T.D.D.D.G.G.D.m.K.K.S.Y.T.S.K.-XMXCXCXBXVXVXNX",
"u u l l l t t b J f.R.T.K.{.|.'.XXOXwXfX0.q.sX$XP.Y.Y.Y.Y.T.S.S.T.T.T.T.T.T.T.T.T.E.E.S.T.S.S.S.S.S.S.S.T.S.T.T./.MXMXMXnXnXnXNX",
"u u r u l l u c.A.C.T.K.{.%X1XwX<XwX-.$.;.q.5.#X[.K.T.T.T.T.T.T.T.T.T.T.T.T.T.T.T.E.E.S.T.T.T.S.S.S.T.T.T.T.S.S.D.!.!.!.W.W.W.W.",
"u u u u i u y A.G.D.T.J.'.yXfX7.gX8.;.| | q.fX$XL.D.K.K.D.T.T.T.T.T.T.T.T.T.T.T.T.E.E.S.T.T.T.T.T.S.S.D.S.S.S.S.D.D.D.S.m.m.m.M.",
"c c a a H H H A.!.W.D.L.oXtX0.w.4.3.%.^ +.%.<.#X|.[.J.K.K.D.T.S.T.T.T.T.T.T.T.T.T.E.E.S.T.T.S.T.S.S.S.T.T.S.S.S.D.S.W.W.T.T.T.W.",
"c.c.c.c.n.A.A.S.T.S.S.`.OXeXq.6.*. .7X0X9X+.X.;.eX1X+X[.D.T.T.T.T.T.S.S.S.D.D.T.B.B.B.B.T.S.S.S.S.D.T.T.D.D.S.S.T.T.Y.T.D.W.D.T.",
"E.E.E.E.E.E.E.E.T.E.E.].'.pXgX,...~ 8XAXAX~ X.>.2.wX+X[.D.D.T.T.T.T.T.T.S.S.n.T.B.B.B.B.T.S.S.S.T.E.T.D.S.S.T.T.T.T.T.T.T.T.S.T.",
"E.E.E.E.E.E.S.A.n.A.A.H.[.+X#XO.$. .5XjX9X+.X.>.4.rX@X`.K.D.T.T.T.T.T.T.S.Q.~.Q.Q.Q.Q.B.T.D.S.S.T.E.E.T.S.S.S.S.T.T.Y.T.T.S.n.n.",
"R.R.S.S.S.S.S.u.K K K H L U Y ' 1.>.@.@.+.&.5.4.0.iX@X`.K.K.T.T.T.T.T.T.T.lXMXxXxXlXlXT.T.D.S.S.T.G.T.T.S.S.S.S.T.T.Y.T.T.n.s.H ",
"z.z.S.E.S.S.E.a.i.y.p u i S Z ) sXq.>.X.%.O.[ o.[ @X_.v.c.S.n.S.T.S.D.~.&XcXNXNXNXvXzXW.T.Y.Y.T.D.D.P..X.X.XXX.X].K.S.S.S.S.s.u ",
"H i.A.T.T.E.E.A.n.h.p p z F Z E rX0.4.,.<.W U U U U L F i.c.Y.Y.T.T.T.xXcXNXNXVXVXZXxXW.T.R.R.T.D.K..X1X<XqXqX,X}.J.S.S.S.T.h.u ",
"y t.c.S.T.E.E.D.T.c.p u u z h E pXgX2.2.tXD z z z z u i H h.Y.Y.T.T.W.mXmXBXBXBXBXZXxXW.T.D.D.K.P.].1XuX0.0.0.8.$X].S.D.S.T.h.u ",
"r K C.G.S.E.T.R.R.c.a u l h A I  X[ [ OX XS z z z z u u c x.F.S.T.T.T.lX3X:X:X:X:X3X-XE.P.I..XXX%X$X-.<.:.,.4.0.4XL.S.D.G.G.c.t.",
"r K A.E.E.S.T.R.S.c.i u l z h z P U I I T F z z z z u u c x.F.S.T.T.T.!.!.W.W.W.W.!.!.D.P. X,XeXrX1.:.X...>.4.0.4XL.D.D.D.D.S.n.",
"i K C.E.E.E.S.R.R.c.i u z z l A A A h l z a z z z z u u c h.G.F.E.T.S.T.T.T.T.D.S.S.T.D.H.+XqXuX8.0.;.| | %.3.0.eX`.L.K.D.D.T.T.",
"i H h.c.z.z.z.c.x.u.i i z l n z z z z z z i z z z z u u c h.G.F.E.T.T.T.T.E.T.T.R.T.R.D.L.oXqXsX3.%.&.&.7X&.&.<.-.@XXX[.D.D.T.S.",
"i i c c c c c J J J z l l l l l l l l l l l l l l l l l c x.E.F.G.E.D.E.E.D.D.S.S.S.Y.Y.J.'.yX2.:.| &.jXjX8X+.| ;.1.wX X].M.B.D.",
"i i i u i i i z z z z l l l l l l l l l l l l l l l l l c g.F.G.G.S.S.E.E.D.D.S.S.S.Y.Y.H.oXyXdX:.~ 5X0XkX8X+. .;.0.rX@X].K.B.D.",
"i i i i u u u l l z z l l l l l l l l l l l l l l l l u c f.j.j.c.j.c.E.E.D.D.S.S.S.Y.S.D.}.%X4X-.%.#.6X9X7X@.X.,.9.1.<X[.K.B.D.",
"i i i i x p p l l l l l l l l l l l l l l l l l l l l u l l z i i c H E.E.D.D.S.S.Y.S.S.S.K.H._.$X5.%.|  .%.>.q.w.9.7.>X[.K.T.D.",
"D D L D S i u u u l l l l l l n v l l l l l l l l l u u u u u l z l H E.P.T.S.S.S.S.Y.Y.R.D.D.L.%XhX:.....$.2.fXrXsXyX%XL.L.P.D.",
"! ) ) ) T S r q 0 0 0 0 0 0 0 j v l l l l l l l l l u u u l z c c z H E.!.T.S.S.S.Y.S.T.T.D.D.I.XX0.:.:.$.<.-.qX,X,X@X{.J.K.D.D.",
"tXdX5.sX$XU z $ @ @ @ @ @ @ @ , k v l l l l l l l l u u l u l z z z c D.G.S.S.S.S.S.D.D.D.D.D.P..X-.8.7.iX,X{.K.K.K.K.K.D.D.D.D.",
"fXq.9.8.[ D 6 @ X o o O O O O > v v l z z z z z z z l u i H i.f.i.i.h.D.G.G.D.D.D.S.S.S.S.T.D.K.I.qXwXqX%XXXJ.D.T.T.T.T.T.T.T.T.",
"gXw.9.hX] 5 # X X o o @ @ @ @ > v v l z z z z z z z l u c j.T.E.E.E.E.D.G.G.D.E.E.S.S.S.S.T.D.D.K.L.`.J.J.L.K.D.S.S.T.T.T.T.T.T.",
"pXuXgXaX` s $ @ X o o o . @ $ > f l l z z z z z z z l u c z.T.T.E.E.E.D.D.G.D.E.D.T.S.S.S.R.T.D.D.D.K.D.F.S.D.S.D.D.D.D.D.D.D.T.",
"_.) _._.U 6 $ @ X o o o : 6 q q l l l z z z z z z z l u c z.T.T.E.E.D.D.D.D.G.S.h.s.a.a.a.f.f.f.f.a.f.h.h.x.C.Y.D.D.G.G.G.G.D.T.",
"S S S S d :   + + X o @ 3 v l l l l l F z A h h z A J z c z.T.S.S.S.T.T.E.G.G.G.H i a i i c F F a i u u l y.S.E.S.T.T.T.S.E.S.T.",
"J J J J d : + + + X o @ 3 v l z z l z c z S Z Z Z S Z h K z.S.E.E.E.T.T.T.G.G.A.H i a a c i z i c c i z l f.F.T.S.S.T.T.S.E.E.E.",
"3 3 3 3 > o + + + X o o < l l l l l l c z _.` `  X|.T L z i.i.s.n.E.E.T.R.G.G.A.K z z z z z z z w < q l l c i.i.j.S.S.S.S.E.A.y.",
"o o o o o X + + + X o o < l x u u u u A S ,XtXuXiX2XE D F i i H z.E.E.T.T.G.G.A.K l l l l l l b q o < l l u e i i.A.S.S.S.S.z.l ",
"X X X X X X X X X X X o < l i z S S S D D eXq.9.hXeX/ D h z i c x.R.E.F.G.R.R.S.c l l l n l l l 0 . < f k v l c a.S.S.S.R.S.g.l ",
"X X X X X X X X X X X X < z z T  XOXOX[ [ $.X.,.w.iX/ D z u i c K y.K i.i.y.y.y.c l l l n t < , : o & : 2 8 n z H t.H H y.K J l ",
"X X X X X X X X X X X X , z A R qX2.5.0.5.} } >.9.rX( D F u u u z z c i a i i i z l l x x w & o o o o X X 8 n z z c c c i z z l ",
"X X X X X X X X X X X X : g e E iXq.4.4.>.+.^ %.>.1.' C D S u u u u i i i i i i z z l l j q & X + X + * & 0 n z z c l l i i z l ",
"X X X X X X X + + + + X o $ # P aX0.;. .| kXAX5X ...;.uXwXE h h z u i i i l l l l l l & o @ @ X X X 1 k z A S N z z z z z z l l ",
"X X X X X X X + + + + + @ @ . V <X-.$.X.| 0X0X5X .X.:.8.-.( z z z u i u u l l l l b f & o @ @ + + X 8 A P L L L G z z F z z l l ",
"X X X X X X X + + + + @ @ @ . 6 R Q o.<.3.#.#.&.>.,.6.0.1./ z z z u i u u l l l l b f & @ O O + + X Z )  X] ] OXR S l z z z z l ",
"X X X o + + + + + + + X X X   = n Z _ gXhX}  .>.q.SX8.8.eX! i y i u l l l l l l l x j & o + + + + . U wXgX8.8.eX_ S i a l l z t ",
"X X X o + + + + + + + o @ : @ < n Z _ fX0.X...$.-.=.=.{ OXR i i i u l l l l l z z x j & o + + + + . U -.w.w.9.1._ S i e w w w 0 ",
"X X X o + + + + + + + o : q d j n A _ rX8.>.<.' / E R R T L h r z l l l l l l z z n w & o X X X X . C -.w.w.w.7.` Z f q : : : - ",
"X X X o + + + + + + + o , v n n n A _ iXuXdXfXQ D S S A F h z z z l l l l l l l z x w & o X X X X . U =.uXgXgXaX` A l 0 o o o   ",
"X X X X + + X + + + + X * j d d v A E #X[ o.4XR A z l l l w w w l z v z z z z l f w q & o X X X X @ V ` { [ { [ E g j 3 X   X X ",
"+ + + + + + X + + + +   X * * 8 v A I Y Y Q Y D z l 0 - - - - < q z v z z z z l < , - o o X X X X X > M B B B B 5 > - &     X X ",
"+ + @ $ o X X + + + + X X X X , v b r g g g g z v v , X X X   o q m v l l z z l - X X o @ X X X X X X . # # # # # @ o o X X X X ",
"X o < 4 : . . + + + + + + +   , f f t j j j w w w q 2 X X X X @ 6 f f l l z z l - X X @ O X X X X X X X X X X . + + @ @ X X X X ",
"  7 t.b.t.; . X X X X X X + X & * * * * * * $ @ @ $ @ o X % % X o $ ; l i p u v : X X X < < < X X X X X X X X X X + + + X X @ X ",
"o 0 d.Q.l.4 o X X < < < < o X X X X   X X X o X   o @ o X % % X X . o l l x l k : X X < < < < < < X X X X X X X o o o o o o o X ",
"b.p.9 ; - o + X X < H H H < < < < < X X X X < < < < < < < < < < < < + * : * & *   X X < H H < < < < < < < < X * w Z.b.b.b.b.u   ",
").r.4 . X X + X < < A.n.H H H H H < < < < < < H H H H H H H H H H < X X H H H H H H H H H n.n.c H H H H < < < < y B.V.N.V.N.y + ",
").r.4 o X X X , < A.S.S.A.A.A.A.H H H H H H H H c A.A.A.S.A.c H H H H H H c S.S.A.A.T.S.S.S.S.S.c A.A.c H H H < e a.d.p.d.d.a 3 ",
"V.r.4 X X X , H H c S.S.S.S.T.T.c H A.A.A.A.A.c S.S.T.S.S.S.T.A.A.A.A.A.c c S.S.S.S.n.n.S.S.S.S.S.S.S.S.S.A.A.H < - - - - ; i b.",
"V.p.4 X X < H H A.S.T.S.S.S.S.S.S.S.S.S.S.S.T.T.n.T.S.S.S.S.S.S.S.S.S.S.S.S.S.T.S.S.S.n.S.S.S.S.S.S.S.S.S.T.A.H H < X + X o F N.",
"V.p.4 + + < H C.S.T.T.S.S.S.S.S.S.S.S.S.m.S.T.T.S.S.S.S.S.S.S.S.S.S.S.S.S.S.S.S.S.S.S.S.T.T.S.S.S.S.S.S.T.T.T.A.H < @ @ O o N M."
};
