/* XPM */
static char *_295d369996c47d589357dd209d505faZFa4QGuREq3HqW5b[] = {
/* columns rows colors chars-per-pixel */
"64 64 29 1 ",
"  c black",
". c #3F3D3D",
"X c #0C4305",
"o c #07520C",
"O c #0D7815",
"+ c #267E0B",
"@ c #3C7421",
"# c #665959",
"$ c #86051F",
"% c #8D0B28",
"& c #C81D1D",
"* c #EF632A",
"= c #F10065",
"- c #B46E7D",
"; c #578741",
": c #6BA958",
"> c #FFDB00",
", c #F4D327",
"< c #EED93A",
"1 c #E09475",
"2 c #4A73C5",
"3 c #249FA2",
"4 c #C98695",
"5 c #E195A6",
"6 c #E89AAB",
"7 c #FF80E2",
"8 c #F7E0E0",
"9 c #F6F6F6",
"0 c white",
/* pixels */
"++++++++++++++++++++++++++++++++++++++++++++++++++++++++++++++++",
"+++9++++++++++++++++++++++++++++++++++X+++++++++++++++++++++++++",
"++9,9++++++++++++++++:+++++++O<++++++X;++++++++++++2+++++9++++++",
"+++9+++++++++++%%+++++++++++oO+++X+++X;++X++++++++282+++9,9+++++",
"+++++++++2++++%-4%+++++++++++++++;X++;++X;++++9++++2+++++9++++++",
"++++:+++282+++%56%++++++9++++++++;X++X++;++++9,9++++++++++++++++",
"+++++++++2+++++%%+==+++9,9++++++++;X+;X+++==++9+++9+++++++++++++",
"++++++++++++++++++==++++9+++++++++;X+;X+++==+++++9,9++++++++++++",
"+++++++++++2++++==00==+++++++++:+++;++;+==00==++++9++++++:++++++",
"++++++++++282+++==00==9++9++++++++++++++==00==+++++++X++++++++++",
"++++++X++++2++==00**00==9,==========++==00**00==+X++X+++++++++++",
"++X++X;+++++++==00**00==+9==========++==00**00==++X+X@++++%%++++",
"++;X+X;+++++++==00**00====7777777777====00**00==+@X+X@+++%56%+++",
"++;X+;++++2+++==00**00====7777777777====00**00==++@+@++++%4-%+++",
"+++;+++++282==00**11====77777777777777====11**00==++++++++%%++++",
"++++++:+++2+==00**11====77777777777777====11**00==+2++++++++++++",
"++++++++++++========777777==777777==777777========282+++++++++++",
"++++++++++++========777777==777777==777777========+2++++++++++++",
"+++X+++X++++==7777777777==7777777777==7777777777==++++++++++++++",
"++++X+X+++++==7777777777==7777777777==7777777777==++++2+++++++++",
"++++++X+++==777777777777==7777777777==777777777777==+282+++:++++",
"++++++++++==777777777777==7777777777==777777777777==++2+++++++++",
"++++++++++==7777777777====7777777777====7777777777==++++++++++++",
"++++++++++==7777777777====7777777777====7777777777==++++++++2+++",
"++++%%++++====777777==00==7777777777==00==777777====+++++++282++",
"+++%56%+++====777777==00==7777777777==00==777777====++9+++++2+++",
"+++%4-%+++O<========000000==777777==000000========+++9,9++++++++",
"++++%%+++oO+========000000==777777==000000========:+++9+++++++++",
"++++++++++++==777777##000000======0000##00777777==+++X++++++++++",
"+++++++2++++==777777##000000======0000##00777777==++X;++9+++++++",
"++++++282++++X==777700##    0000##    00007777==++++;++9,9++++++",
"+++++++2++++++==777700##    0000##    00007777==+X++++X+9+++++++",
"+++:++++++++++X+====000000  00000000  0000====++X;+++X+++++9+++:",
"+X++++++++++++++====000000  00000000  0000====++X;X++X;+++9,9+++",
"+;X++X+++2++++++++==0000    000000    0000==++X+;+;X+;+++++9++++",
"++;+X+++282+++++++==0000    000000    0000==+;X+++;X+++++9++++++",
"+X++X;+++2++:+++==770000    00..00    000077==;++++;++++9,9+++++",
"++X+X;++++++++++==770000    00..00    000077==+++++++++++9++++++",
"+;X+;++9++++++++====7700000000000000000077====+++++:++++++++++++",
"++;+++9,9+++++++====7700000000000000000077====++++++++++++++++++",
"+++++++9+++X+++X++====0000  000000  0000====+++%%++++++++X++++++",
"+++++++++++XX+X+++====0000  000000  0000====++%-4%+++X++X+++++++",
"++++++++++++X+X;==7777$$0000      0000$$7777==%56%++++X+X+++++++",
"++:++++++++;X+;+==7777$$0000      0000$$7777==+%%+++++X+++++++++",
"++++++++++++;+==777777$$>>0000000000>>$$777777==+++++++++++2++++",
"++++X+++++++++==777777$$>>0000000000>>$$777777==++++++++++282+++",
"+++X;;+++++++9==7777$$$$$$$$&&&&&&$$$$$$$$7777==+++++++++++2++++",
"X++X;++++9++++==7777$$$$$$$$&&&&&&$$$$$$$$7777==9+++++++++++++++",
";X+;++++9,9+++      $$&&&&&&&&&&&&&&&&&&$$      ++++++2+++++++++",
"+;+++++++9++++      $$&&&&&&&&&&&&&&&&&&$$      +++++282+++++:++",
"++++9+++++++++++    $$33&&33&&&&&&33&&33$$    9+++++++2+++++++++",
"+++9,9++++++++++    $$33&&33&&&&&&33&&33$$    ++++++++++++++++++",
"+@++9++9++++X+++X+++$$$$$$$$$$$$$$$$$$$$$$+++++++++++++++9++++++",
"++++++9,9++++X+X++++$$$$$$$$$$$$$$$$$$$$$$+++++++++++:++9,9+++++",
"+++9+++9++++;X+X;+++==777777==oO==777777==+++++++++++++++9+++9++",
"++9,9+++++++;X+;++++==777777==++==777777==+++++++X+++X++++++9,9+",
"+++9++@++++++;++++++          ++          ++++X++;X+++X++++++9++",
"+++++++++++++++++++9          ++          9+++;X+;X++;X+++++++++",
"+++++++X++++++++++9,9+      +++++O      +9,9+++;;+;+X;X++X++++++",
"+++X++X+++++++O<+++9++      ;+++oO      ++9+++X++++X;+;+X;++2+++",
"++++X+X+;++++oO++++++++++X+X;+++++++++++++++++;X+++X;+++;++282++",
"+++;X+;;++++++++++++++++;X+;+++++++++++++++++++;+++;++++++++2+++",
"++++;+++++++:++++++++++++;++++++++++++++++++++++++++++++++++++++",
"++++++++++++++++++++++++++++++++++++++++++++++++++++++++++++++++"
};
