/* XPM */
static char * exit_xpm[] = {
"64 64 21 1",
" 	c #267E0B",
".	c #F6F6F6",
"+	c #0C4305",
"@	c #F4D327",
"#	c #6BA958",
"$	c #0D7815",
"%	c #EED93A",
"&	c #578741",
"*	c #4A73C5",
"=	c #8D0B28",
"-	c #07520C",
";	c #F7E0E0",
">	c #B46E7D",
",	c #C98695",
"'	c #E195A6",
")	c #E89AAB",
"!	c #9C450B",
"~	c #3C7421",
"{	c #0D0101",
"]	c #3E1902",
"^	c #612F0F",
"                                                                ",
"   .                                  +                         ",
"  .@.                #       $%      +&            *     .      ",
"   .           ==           -$   +   +&  +        *;*   .@.     ",
"         *    =>,=               &+  &  +&    .    *     .      ",
"    #   *;*   =')=      .        &+  +  &    .@.                ",
"         *     ==      .@.        &+ &+       .   .             ",
"                        .         &+ &+          .@.            ",
"           *         .         #   &  &           .      #      ",
"          *;*       .@.  .                           +          ",
"      +    *    #    .  .@.   !!                 +  +           ",
"  +  +&                  .    !!          #       + +~    ==    ",
"  &+ +&                .      !!!! +             ~+ +~   =')=   ",
"  &+ &    *   +    +  .@.     !!!!+&              ~ ~    =,>=   ",
"   &     *;*  &+  +&   .      !!!!+&                      ==    ",
"      #   *   &+  &           !!!!&             #  *            ",
"            +  &   +        !!{{!!                *;*           ",
"            &+   +  +       !!{{!!      +   +      *            ",
"   +   +     &  +& &+      *!!{{!!      &+ +                    ",
"    + +         +& &+     *;!!{{!!       & +&         *         ",
"      +      +  &   &      *!!{{!!+  ==    &         *;*   #    ",
"             &+  +          !!{{!!  =')=        .     *         ",
"             &+ +&     #  !!!!{{!!!!=,>=       .@.              ",
"              & &         !!!!{{!!!! ==         .           *   ",
"    ==    !!!!!!!!!!!!!!!!!!!!{{]]!!!!!!!!!!!!!!!!!!       *;*  ",
"   =')=   !!!!!!!!!!!!!!!!!!!!{{]]!!!!!!!!!!!!!!!!!!  .     *   ",
"   =,>=   $%    {{{{{{{{!!!!{{{{]]]]!!!!!!!!]]{{     .@.        ",
"    ==   -$     {{{{{{{{!!!!{{{{]]]]!!!!!!!!]]{{+ #   .         ",
"                  ]]{{{{{{]]]]]]{{]]]]]]]]]]{{ &+    +          ",
"       *          ]]{{{{{{]]]]]]{{]]]]]]]]]]{{  &   +&  .       ",
"      *;*    +   +      {{{{]]{{{{{{{{{{]]{{ &+     &  .@.      ",
"       *      + +       {{{{]]{{{{{{{{{{]]{{  &  +    + .       ",
"   #          +           {{{{{{{{{{{{{{{{      +&   +     .   #",
" +                  $%    {{{{{{{{{{{{{{{{   +  +&+  +&   .@.   ",
" &+  +   *         -$     ]]{{{{{{{{]]{{      + & &+ &     .    ",
"  & +   *;*               ]]{{{{{{{{]]{{     &+   &+     .      ",
" +  +&   *  #           !!{{]]{{{{{{]]{{      &    &    .@.     ",
"  + +&                 #!!{{]]{{{{{{]]{{                 .      ",
" &+ &  .              !!{{{{]]]]{{]]]]]]^^*        #            ",
"  &   .@.             !!{{{{]]]]{{]]]]]]^^;*                    ",
"       .   +   +    !!!!{{{{]]{{]]]]]]]]!!!!   ==        +      ",
"           ++ +     !!!!{{{{]]{{]]]]]]]]!!!!  =>,=   +  +       ",
"            + +&  !!!!{{{{]]]]+    *^^{{!!!!  =')=    + +       ",
"  #        &+ &   !!!!{{{{]]]]+   *;^^{{!!!!   ==     +         ",
"            &   !!!!{{{{]]]]  &    *  {{{{!!!!             *    ",
"    +         . !!!!{{{{]]]]          {{{{!!!!            *;*   ",
"   +&&       .!!!!{{{{]]]]           =>,{{{{!! .           *    ",
"+  +&    .    !!!!{{{{]]]]           ='){{{{!!.@.               ",
"&+ &    .@.   !!]]{{]]=           #   ==  {{{{!!      *         ",
" &       .    !!]]{{]]     *              {{{{!!     *;*     #  ",
"    .       !!!!{{        *;*               ^^{{      *         ",
"   .@.      !!!!{{         *                ^^{{                ",
" ~  .  .    +   +        .            *                  .      ",
"      .@.    + +        .@.    $     *;*             #  .@.     ",
"   .   .    &+ +&   #    .    -$      *                  .   .  ",
"  .@.       &+ &                                 +   +      .@. ",
"   .  ~      &                                +  &+   +      .  ",
"                   .        +             .   &+ &+  &+         ",
"       +          .@.      +     $%  #   .@.   && & +&+  +      ",
"   +  +       $%   .    +  +&   -$        .   +    +& & +&  *   ",
"    + + &    -$          + +&                 &+   +&   &  *;*  ",
"   &+ &&                &+ &                   &   &        *   ",
"    &       #            &                                      ",
"                                                                "};
