/* XPM */
static char *_7dbeeea22c54d5f97c273d7e81338d2tFRblbA0sWO7UR6d[] = {
/* columns rows colors chars-per-pixel */
"64 64 17 1 ",
"  c #0C4305",
". c #07520C",
"X c #0D7815",
"o c #267E0B",
"O c #3C7421",
"+ c #8D0B28",
"@ c #B46E7D",
"# c #578741",
"$ c #6BA958",
"% c #F4D327",
"& c #EED93A",
"* c #4A73C5",
"= c #C98695",
"- c #E195A6",
"; c #E89AAB",
": c #F7E0E0",
"> c #F6F6F6",
/* pixels */
"oooooooooooooooooooooooooooooooooooooooooooooooooooooooooooooooo",
"ooo>oooooooooooooooooooooooooooooooooo ooooooooooooooooooooooooo",
"oo>%>oooooooooooooooo$oooooooX&oooooo #oooooooooooo*ooooo>oooooo",
"ooo>ooooooooooo++ooooooooooo.Xooo ooo #oo oooooooo*:*ooo>%>ooooo",
"ooooooooo*oooo+@=+ooooooooooooooo# oo#oo #oooo>oooo*ooooo>oooooo",
"oooo$ooo*:*ooo+-;+oooooo>oooooooo# oo oo#oooo>%>oooooooooooooooo",
"ooooooooo*ooooo++oooooo>%>oooooooo# o# ooooooo>ooo>ooooooooooooo",
"oooooooooooooooooooooooo>ooooooooo# o# oooooooooo>%>oooooooooooo",
"ooooooooooo*ooooooooo>ooooooooo$ooo#oo#ooooooooooo>oooooo$oooooo",
"oooooooooo*:*ooooooo>%>oo>ooooooooooooooooooooooooooo oooooooooo",
"oooooo oooo*oooo$oooo>oo>%>oooooooooooooooooooooo oo ooooooooooo",
"oo oo #oooooooooooooooooo>oooooooooooooooo$ooooooo o Ooooo++oooo",
"oo# o #oooooooooooooooo>ooooooooooo oooooooooooooO o Oooo+-;+ooo",
"oo# o#oooo*ooo oooo oo>%>oooooo oo #ooooooooooooooOoOoooo+=@+ooo",
"ooo#ooooo*:*oo# oo #ooo>ooooooo# o #oooooooooooooooooooooo++oooo",
"oooooo$ooo*ooo# oo#oooooooooooo# o#ooooooooooooo$oo*oooooooooooo",
"oooooooooooo oo#ooo oooooooooooo#ooooooooooooooooo*:*ooooooooooo",
"oooooooooooo# ooo oo ooooooooooooooooooo ooo oooooo*oooooooooooo",
"ooo ooo ooooo#oo #o# oooooo*oooooooooooo# o oooooooooooooooooooo",
"oooo o ooooooooo #o# ooooo*:*oooooooooooo#o #ooooooooo*ooooooooo",
"oooooo oooooo oo#ooo#oooooo*oooooo oo++oooo#ooooooooo*:*ooo$oooo",
"ooooooooooooo# oo ooooooooooooooo oo+-;+oooooooo>ooooo*ooooooooo",
"ooooooooooooo# o #ooooo$oooooo oo #o+=@+ooooooo>%>oooooooooooooo",
"oooooooooooooo#o#oooooooooooo ooo#ooo++ooooooooo>ooooooooooo*ooo",
"oooo++ooooooooooooooooooooooo # ooooooooooooooooooooooooooo*:*oo",
"ooo+-;+ooooooo$oooooooooooo o#o# ooooooooooooooooooooo>ooooo*ooo",
"ooo+=@+oooX&ooooooooo++oooo# oo# oo$ooooooooooo ooooo>%>oooooooo",
"oooo++ooo.Xooooooooo+-;+oooo#ooo#ooooo>oooooooo# o$ooo>ooooooooo",
"oooooooooooooooooooo+@=+ooooooooooooo>&>ooooooo# oooo oooooooooo",
"ooooooo*ooooooooooooo++ooooooo*ooooooo>oooooo oo#ooo #oo>ooooooo",
"oooooo*:*oooo ooo oooooooo*oo*:*ooo>ooooooooo# ooooo#oo>%>oooooo",
"ooooooo*oooooo o oooooooo*:*oo*ooo>&>ooooooooo#oo oooo o>ooooooo",
"ooo$oooooooooo ooooooooooo*oooooooo>ooooX&oooooo #ooo ooooo>ooo$",
"o ooooooooooooooooooX&ooooooooo*ooooooo.Xoooo oo # oo #ooo>%>ooo",
"o# oo ooo*ooooooooo.Xoooooo oo*:*ooooooooooooo o#o# o#ooooo>oooo",
"oo#o ooo*:*oooooooooooooooo# oo*o ooooooooooo# ooo# ooooo>oooooo",
"o oo #ooo*oo$oooooooooooo o# ooo ooooo$ooooooo#oooo#oooo>%>ooooo",
"oo o #ooooooooooooooooo$o# o# oo #ooooooooooooooooooooooo>oooooo",
"o# o#oo>oooooooooooooooooo#o# oo#ooooooooo*oooooooo$oooooooooooo",
"oo#ooo>%>ooooooooooooooo oooo#ooo ooo*ooo*:*oooooooooooooooooooo",
"ooooooo>ooo ooo oooooooo# oooooo #oo*:*ooo*oooo++oooooooo oooooo",
"ooooooooooo  o oooooX&oo# ooo oo#oooo*oooooooo+@=+ooo oo ooooooo",
"oooooooooooo o #ooo.Xoooo#ooo# oooo*oooooooooo+-;+oooo o ooooooo",
"oo$oooooooo# o#oooooooooooooo# ooo*:*oooooooooo++ooooo ooooooooo",
"oooooooooooo#ooooooooooo$ooooo#oooo*ooooooo>ooooooooooooooo*oooo",
"oooo ooooooooo>ooooooooooooooooooooooo++oo>%>ooooooooooooo*:*ooo",
"ooo ##ooooooo>%>oooo++ooooooooooooooo+@=+oo>ooo>ooooooooooo*oooo",
" oo #oooo>oooo>oooo+-;+oooooooooooooo+-;+ooooo>%>ooooooooooooooo",
"# o#oooo>%>oooooooo+=@+ooooooooooo$ooo++ooooooo>oooooo*ooooooooo",
"o#ooooooo>ooooo$oooo++ooooo*ooooooooooooooooo>ooooooo*:*ooooo$oo",
"oooo>ooooooooooooooooooooo*:*ooooooooooooooo>%>ooooooo*ooooooooo",
"ooo>%>ooooooooooooooooooooo*ooooooooooooooooo>oooooooooooooooooo",
"oOoo>oo>oooo ooo oooooooo>oooooooooooo*oooooooooooooooooo>oooooo",
"oooooo>%>oooo o oooooooo>%>ooooXooooo*:*ooooooooooooo$oo>%>ooooo",
"ooo>ooo>oooo# o #ooo$oooo>oooo.Xoooooo*oooooooooooooooooo>ooo>oo",
"oo>%>ooooooo# o#ooooooooooooooooooooooooooooooooo ooo oooooo>%>o",
"ooo>ooOoooooo#oooooooooooooooooooooooooooooooo oo# ooo oooooo>oo",
"ooooooooooooooooooo>oooooooo ooooooooooooo>ooo# o# oo# ooooooooo",
"ooooooo oooooooooo>%>oooooo oooooX&oo$ooo>%>ooo##o#o # oo oooooo",
"ooo oo oooooooX&ooo>oooo oo #ooo.Xoooooooo>ooo oooo #o#o #oo*ooo",
"oooo o o#oooo.Xoooooooooo o #ooooooooooooooooo# ooo #ooo#oo*:*oo",
"ooo# o##oooooooooooooooo# o#ooooooooooooooooooo#ooo#oooooooo*ooo",
"oooo#ooooooo$oooooooooooo#oooooooooooooooooooooooooooooooooooooo",
"oooooooooooooooooooooooooooooooooooooooooooooooooooooooooooooooo"
};
